<svg width="115" height="123" viewBox="0 0 115 123" fill="none" xmlns="http://www.w3.org/2000/svg">
<path d="M19.19 34.8C21.49 51.13 25.06 63.51 31.1 68.08C31.1932 62.5991 31.7755 57.1374 32.84 51.76C36.33 34.3 41.94 33.36 47.34 20.46C50.0741 13.9976 50.6937 6.83591 49.11 0C68.46 3.35 86.43 32.52 90.94 69.61C95.8538 63.2818 98.7275 55.6092 99.18 47.61C107.72 56.34 111.95 66.73 113.53 78.13C116.73 99.96 110.03 114.13 92.32 119.7C96.26 110.7 95.32 103.7 91.22 94.44C89.5772 90.6543 87.2325 87.2137 84.31 84.3C83.05 93.3 81.1 100.05 77.78 102.56C77.7127 99.5364 77.3781 96.5246 76.78 93.56C74.86 83.98 71.78 83.47 68.78 76.39C67.2691 72.8462 66.919 68.915 67.78 65.16C57.17 67 47.31 83.01 44.78 103.36C42.0893 99.8891 40.5134 95.6844 40.26 91.3C35.8617 95.8641 33.0919 101.752 32.38 108.05C31.5 114.05 31.99 119.05 33.93 122.84C20.31 121.28 11.18 113.69 5.41 101.44C-2.88 83.9 -1.4 70.82 6.41 53.29C9.46533 46.3756 13.8016 40.1019 19.19 34.8Z" fill="#CCCCCC"/>
</svg>
