<svg width="722" height="755" viewBox="0 0 722 755" fill="none" xmlns="http://www.w3.org/2000/svg">
<path d="M522.459 63.8669L519.934 118.241L643.448 119.015L522.459 63.8669Z" fill="#A57302"/>
<path d="M195.762 64.2908L197.513 118.695L74 117.711L195.762 64.2908Z" fill="#A57302"/>
<g clip-path="url(#clip0_19_17)">
<path d="M210.583 62.9167C177.492 62.9167 150.417 91.2292 150.417 125.833V692.083L361 566.25L571.583 692.083V125.833C571.583 91.2292 544.508 62.9167 511.417 62.9167H210.583Z" fill="url(#paint0_linear_19_17)"/>
</g>
<path d="M279.762 282.223C284.725 317.053 292.428 343.458 305.462 353.205C305.663 341.515 306.92 329.866 309.217 318.397C316.748 281.157 328.853 279.152 340.506 251.638C346.406 237.855 347.743 222.58 344.325 208C386.08 215.145 424.857 277.36 434.589 356.468C445.193 342.971 451.394 326.606 452.37 309.545C470.799 328.165 479.927 350.325 483.336 374.64C490.241 421.2 475.783 451.423 437.567 463.303C446.069 444.107 444.041 429.177 435.194 409.427C431.649 401.352 426.589 394.014 420.283 387.8C417.564 406.995 413.356 421.392 406.192 426.746C406.047 420.297 405.325 413.873 404.034 407.55C399.891 387.117 393.245 386.029 386.771 370.929C383.511 363.37 382.755 354.986 384.613 346.977C361.718 350.901 340.441 385.048 334.982 428.452C329.176 421.049 325.775 412.081 325.228 402.73C315.737 412.464 309.76 425.022 308.224 438.455C306.325 451.252 307.383 461.916 311.569 470C282.179 466.673 262.477 450.484 250.026 424.357C232.137 386.947 235.331 359.049 252.184 321.66C258.777 306.912 268.134 293.531 279.762 282.223Z" fill="black"/>
<defs>
<linearGradient id="paint0_linear_19_17" x1="361" y1="62.9167" x2="361" y2="692.083" gradientUnits="userSpaceOnUse">
<stop stop-color="#FFC94B"/>
<stop offset="1" stop-color="#EBA607"/>
</linearGradient>
<clipPath id="clip0_19_17">
<rect width="722" height="755" fill="white"/>
</clipPath>
</defs>
</svg>
