<?xml version="1.0" encoding="UTF-8"?>
<svg version="1.1" xmlns="http://www.w3.org/2000/svg" width="161" height="191">
<path d="M0 0 C2.16084563 -0.02131963 4.32167437 -0.0444188 6.48248291 -0.06921387 C11.00865874 -0.10951442 15.53326551 -0.1142753 20.05957031 -0.09667969 C25.84007023 -0.07901163 31.6129907 -0.17062805 37.39202499 -0.29203033 C41.85532619 -0.36989036 46.31682171 -0.37827501 50.78070831 -0.36735535 C52.90978261 -0.37241113 55.03894568 -0.40117191 57.16735077 -0.45478821 C73.35801018 -0.81769794 73.35801018 -0.81769794 78.28120422 2.94790649 C81.43156134 6.23009274 87.265625 12.61616009 87.265625 17.40625 C83.305625 17.40625 79.345625 17.40625 75.265625 17.40625 C75.27450745 18.852845 75.28338989 20.29944 75.2925415 21.78987122 C75.37351544 35.40132107 75.43377677 49.01274593 75.47287369 62.62437916 C75.49350919 69.62281268 75.5216483 76.62106655 75.56738281 83.61938477 C75.61147182 90.3691169 75.63474147 97.11862353 75.64513397 103.86850548 C75.65254309 106.44781119 75.66701069 109.02710632 75.68854523 111.60633278 C75.71744666 115.21019481 75.72158643 118.81327766 75.71972656 122.41723633 C75.73410767 123.49113617 75.74848877 124.56503601 75.76330566 125.67147827 C75.75780701 126.65164413 75.75230835 127.63181 75.74664307 128.64167786 C75.75033024 129.49433637 75.75401741 130.34699488 75.75781631 131.22549152 C75.265625 133.40625 75.265625 133.40625 73.39149094 135.2128706 C71.265625 136.40625 71.265625 136.40625 68.77075195 136.26489258 C66.15023148 135.3666984 64.38826162 134.33443281 62.18359375 132.66796875 C61.42385254 132.10037842 60.66411133 131.53278809 59.88134766 130.94799805 C59.08003418 130.33609619 58.2787207 129.72419434 57.453125 129.09375 C56.62087402 128.47089111 55.78862305 127.84803223 54.93115234 127.20629883 C50.80919783 124.11620458 46.71754998 120.987867 42.63671875 117.84375 C41.56031128 117.02064331 41.56031128 117.02064331 40.4621582 116.1809082 C39.11172147 115.14623652 37.7674499 114.10345269 36.43041992 113.05151367 C31.82513284 109.40545959 31.82513284 109.40545959 26.265625 108.40625 C19.86560528 111.33400255 14.48394914 115.91876253 8.953125 120.21875 C3.65098899 124.32549534 -1.66175309 128.41590397 -7.08984375 132.35546875 C-7.86352295 132.91967529 -8.63720215 133.48388184 -9.43432617 134.06518555 C-11.9951571 135.55830138 -13.76809958 136.25933472 -16.734375 136.40625 C-18.85804367 135.21164989 -18.85804367 135.21164989 -20.734375 133.40625 C-21.22656631 131.22549152 -21.22656631 131.22549152 -21.21539307 128.64167786 C-21.22089172 127.66151199 -21.22639038 126.68134613 -21.23205566 125.67147827 C-21.21767456 124.59757843 -21.20329346 123.52367859 -21.18847656 122.41723633 C-21.18906067 121.28538406 -21.18964478 120.1535318 -21.19024658 118.98738098 C-21.1874546 115.23737165 -21.15630851 111.48815213 -21.125 107.73828125 C-21.11754161 105.14182469 -21.11184679 102.54536251 -21.10784912 99.94889832 C-21.09412476 93.80771934 -21.0625834 87.66686746 -21.02245116 81.52581185 C-20.97775275 74.53437987 -20.95575133 67.54293434 -20.93566942 60.55139506 C-20.89385095 46.16952293 -20.82268188 31.78790679 -20.734375 17.40625 C-24.694375 17.40625 -28.654375 17.40625 -32.734375 17.40625 C-31.86126908 15.76481087 -30.96696038 14.13278769 -29.99884033 12.54553223 C-28.68515638 10.42393479 -28.68515638 10.42393479 -27.72918701 8.09020996 C-22.11869989 -2.14019379 -10.17616266 -0.0121535 0 0 Z " fill="#FAB409" transform="translate(36.734375,14.59375)"/>
<path d="M0 0 C2.37109375 -0.140625 2.37109375 -0.140625 5 0 C7.0625 2.25 7.0625 2.25 9 5 C9.63421875 5.59425781 10.2684375 6.18851563 10.921875 6.80078125 C13.31661288 9.33506212 14.65400786 11.81138363 16.1875 14.9375 C16.69667969 15.95714844 17.20585938 16.97679688 17.73046875 18.02734375 C20.04769906 23.45322764 20.09839181 28.19488319 20 34 C20.99 34 21.98 34 23 34 C23.66 31.03 24.32 28.06 25 25 C29.8830346 27.4415173 30.19347096 29.01053885 32 34 C33.79823558 40.00238636 33.88736293 46.55975193 31.75 52.4375 C30.00668888 54.99020557 28.40131649 57.04893035 26 59 C25.01 59 24.02 59 23 59 C22.90203125 58.09636719 22.8040625 57.19273438 22.703125 56.26171875 C22.55359375 55.08222656 22.4040625 53.90273437 22.25 52.6875 C22.11078125 51.51574219 21.9715625 50.34398437 21.828125 49.13671875 C21.27702468 45.91100634 21.27702468 45.91100634 18.921875 44.08203125 C18.28765625 43.72496094 17.6534375 43.36789063 17 43 C17 44.98 17 46.96 17 49 C16.01 49.33 15.02 49.66 14 50 C13.01 45.05 13.01 45.05 12 40 C11.34 40 10.68 40 10 40 C9.505 36.535 9.505 36.535 9 33 C4.31344438 35.21309571 1.87313979 38.24222493 0 43 C-0.566573 45.70066464 -0.80600187 48.23552668 -1 51 C-2.485 50.505 -2.485 50.505 -4 50 C-4 49.01 -4 48.02 -4 47 C-6.62799102 48.86502588 -7.86365751 50.30410791 -8.48828125 53.4921875 C-8.72593573 55.9964272 -8.9040664 58.48653979 -9 61 C-14.43940627 59.723522 -17.63653284 57.88989283 -20.6875 53.125 C-25.30195035 45.12952155 -26.20040606 38.82141833 -23.8125 29.8125 C-22.3207844 25.25921573 -20.42649133 22.33863257 -17 19 C-16.34 19 -15.68 19 -15 19 C-14.32968281 20.9570868 -13.66385317 22.91571113 -13 24.875 C-12.443125 26.51082031 -12.443125 26.51082031 -11.875 28.1796875 C-11 31 -11 31 -11 33 C-10.34 33 -9.68 33 -9 33 C-9.01160156 32.38511719 -9.02320313 31.77023438 -9.03515625 31.13671875 C-9.04417969 30.32847656 -9.05320312 29.52023438 -9.0625 28.6875 C-9.07410156 27.88699219 -9.08570313 27.08648437 -9.09765625 26.26171875 C-9 24 -9 24 -8 21 C-7.34 21 -6.68 21 -6 21 C-5.9175 20.278125 -5.835 19.55625 -5.75 18.8125 C-5 16 -5 16 -3 13.875 C-0.005922 9.57101287 -0.17983625 5.13432492 0 0 Z " fill="#FEFBF3" transform="translate(59,44)"/>
<path d="M0 0 C11.55 0 23.1 0 35 0 C32.19402176 2.80597824 29.76778504 5.03968716 26.62890625 7.34765625 C25.39624023 8.25547852 25.39624023 8.25547852 24.13867188 9.18164062 C22.8634668 10.11266602 22.8634668 10.11266602 21.5625 11.0625 C20.2930957 11.99932617 20.2930957 11.99932617 18.99804688 12.95507812 C7.94416848 21.06587222 7.94416848 21.06587222 4.3125 20.8125 C2 20 2 20 0 18 C-0.22705078 16.12060547 -0.22705078 16.12060547 -0.1953125 13.8671875 C-0.19031738 13.14128418 -0.18532227 12.41538086 -0.18017578 11.66748047 C-0.16196777 10.74596191 -0.14375977 9.82444336 -0.125 8.875 C-0.08375 5.94625 -0.0425 3.0175 0 0 Z " fill="#F8A72C" transform="translate(16,130)"/>
<path d="M0 0 C1.34888732 0.00015905 2.69778075 0.00584927 4.04663086 0.01586914 C5.10991859 0.01799156 5.10991859 0.01799156 6.19468689 0.02015686 C8.46699173 0.02577096 10.73919936 0.03832576 13.01147461 0.05102539 C14.54858257 0.05603858 16.08569206 0.0606018 17.62280273 0.06469727 C21.39823103 0.07574497 25.17358632 0.09301898 28.94897461 0.11352539 C29.05680861 3.05200192 29.13619377 5.9865369 29.19897461 8.92602539 C29.24924805 10.17609375 29.24924805 10.17609375 29.30053711 11.45141602 C29.39849922 17.54955758 29.39849922 17.54955758 27.24584961 20.25024414 C24.31815221 21.3506202 22.94212572 20.95441343 19.94897461 20.11352539 C17.71655273 18.79418945 17.71655273 18.79418945 15.48022461 17.12915039 C14.66166992 16.52329102 13.84311523 15.91743164 12.99975586 15.29321289 C12.15799805 14.65641602 11.31624023 14.01961914 10.44897461 13.36352539 C9.18633789 12.4315332 9.18633789 12.4315332 7.89819336 11.48071289 C3.59602751 8.2693324 -0.39055093 5.04403485 -4.05102539 1.11352539 C-3.05102539 0.11352539 -3.05102539 0.11352539 0 0 Z " fill="#F8A72B" transform="translate(83.051025390625,129.886474609375)"/>
<path d="M0 0 C0.99 0 1.98 0 3 0 C3.33 2.31 3.66 4.62 4 7 C4.66 7 5.32 7 6 7 C7.60355101 10.50776784 8.22036864 13.14354879 8 17 C8.66 16.67 9.32 16.34 10 16 C10.65772428 12.97065509 10.65772428 12.97065509 11 10 C13.61125422 10.95745988 14.79164659 11.65621688 16.25 14.0625 C17.2734742 18.07110729 17.16131784 21.8863951 17 26 C17.66 26.33 18.32 26.66 19 27 C18.01 27 17.02 27 16 27 C16 25.68 16 24.36 16 23 C6.1 23 -3.8 23 -14 23 C-14 24.98 -14 26.96 -14 29 C-14.66 28.67 -15.32 28.34 -16 28 C-15.91231752 26.4156683 -15.80412671 24.83246433 -15.6875 23.25 C-15.62949219 22.36828125 -15.57148437 21.4865625 -15.51171875 20.578125 C-14.92970571 17.64584554 -14.04364902 16.1597081 -12 14 C-11.34 14 -10.68 14 -10 14 C-9.67 14.99 -9.34 15.98 -9 17 C-8.34 17.33 -7.68 17.66 -7 18 C-7.185625 16.2984375 -7.185625 16.2984375 -7.375 14.5625 C-7.42505246 8.95662435 -4.35833935 5.25141575 -1 1 C-0.67 0.67 -0.34 0.34 0 0 Z " fill="#FBBE1B" transform="translate(65,77)"/>
<path d="M0 0 C0.66 0 1.32 0 2 0 C3.79450728 2.27990679 5.47366174 4.55763016 7.125 6.9375 C7.82689453 7.9265332 7.82689453 7.9265332 8.54296875 8.93554688 C12 13.84896593 12 13.84896593 12 15 C8.04 15 4.08 15 0 15 C0 10.05 0 5.1 0 0 Z " fill="#D39224" transform="translate(112,17)"/>
<path d="M0 0 C0.66 0 1.32 0 2 0 C2 4.95 2 9.9 2 15 C-1.96 15 -5.92 15 -10 15 C-7.13517038 9.71108377 -4.06436802 4.47080482 0 0 Z " fill="#D08C19" transform="translate(14,17)"/>
<path d="M0 0 C22.44 0 44.88 0 68 0 C68 0.33 68 0.66 68 1 C45.56 1 23.12 1 0 1 C0 0.67 0 0.34 0 0 Z " fill="#F6F6F6" transform="translate(93,11)"/>
<path d="M0 0 C0.59167969 0.16757812 1.18335938 0.33515625 1.79296875 0.5078125 C8.03306515 2.14298112 8.03306515 2.14298112 14 0 C11.73943528 2.7822335 10.5944274 3.90092877 7 4.5 C3.4055726 3.90092877 2.26056472 2.7822335 0 0 Z " fill="#F3F3F3" transform="translate(49,0)"/>
<path d="M0 0 C0.66 0 1.32 0 2 0 C1.45773019 3.79588866 -0.20127563 5.47211993 -3 8 C-3.66 7.67 -4.32 7.34 -5 7 C-4.21654285 5.82780457 -3.42297164 4.66236332 -2.625 3.5 C-2.18414062 2.8503125 -1.74328125 2.200625 -1.2890625 1.53125 C-0.65097656 0.77328125 -0.65097656 0.77328125 0 0 Z " fill="#DEAE5C" transform="translate(14,17)"/>
<path d="M0 0 C-1.49097658 3.7952131 -3.75700849 5.61042731 -7 8 C-4.18918919 0 -4.18918919 0 0 0 Z " fill="#FBCA47" transform="translate(67,77)"/>
<path d="M0 0 C1.65 0 3.3 0 5 0 C5 0.99 5 1.98 5 3 C4.01 3 3.02 3 2 3 C2 2.34 2 1.68 2 1 C1.34 0.67 0.68 0.34 0 0 Z " fill="#C8D8D6" transform="translate(150,0)"/>
<path d="M0 0 C2.64 0 5.28 0 8 0 C7.67 0.66 7.34 1.32 7 2 C5.02 2 3.04 2 1 2 C0.67 1.34 0.34 0.68 0 0 Z " fill="#F5F5F5" transform="translate(92,1)"/>
<path d="M0 0 C1.98 0 3.96 0 6 0 C6 0.33 6 0.66 6 1 C4.02 1 2.04 1 0 1 C0 0.67 0 0.34 0 0 Z " fill="#EDEDEF" transform="translate(143,0)"/>
<path d="" fill="#FBFBFB" transform="translate(0,0)"/>
<path d="M0 0 C2 1 2 1 2 1 Z " fill="#FAFAFA" transform="translate(9,16)"/>
<path d="M0 0 C2 1 2 1 2 1 Z " fill="#F8F8F8" transform="translate(18,1)"/>
<path d="M0 0 C2 1 2 1 2 1 Z " fill="#F8F8F8" transform="translate(100,0)"/>
<path d="M0 0 C2 1 2 1 2 1 Z " fill="#F8F8F8" transform="translate(90,0)"/>
<path d="" fill="#F8F8F8" transform="translate(0,0)"/>
<path d="" fill="#FEFEFE" transform="translate(0,0)"/>
<path d="" fill="#F8F8F8" transform="translate(0,0)"/>
<path d="" fill="#F6F6F6" transform="translate(0,0)"/>
<path d="" fill="#F7F7F7" transform="translate(0,0)"/>
<path d="" fill="#FBFBFB" transform="translate(0,0)"/>
<path d="" fill="#F8F8F8" transform="translate(0,0)"/>
<path d="" fill="#F8F8F8" transform="translate(0,0)"/>
<path d="" fill="#FBFBFB" transform="translate(0,0)"/>
<path d="" fill="#F7F7F7" transform="translate(0,0)"/>
<path d="" fill="#F6F6F6" transform="translate(0,0)"/>
<path d="" fill="#B3B3E2" transform="translate(0,0)"/>
<path d="" fill="#F2F2F2" transform="translate(0,0)"/>
</svg>
