<svg width="1220" height="250" viewBox="0 0 1220 250" fill="none" xmlns="http://www.w3.org/2000/svg">
<rect width="1220" height="250" fill="#D9D9D9"/>
<path d="M396.429 37C349.309 37 311 48.275 311 62.1429V187.857C311 201.725 349.309 213 396.429 213H823.571C870.691 213 909 201.725 909 187.857V62.1429C909 48.275 870.691 37 823.571 37H396.429ZM481.857 68.4286C517.23 68.4286 545.929 76.875 545.929 87.2857C545.929 97.6964 517.23 106.143 481.857 106.143C446.484 106.143 417.786 97.6964 417.786 87.2857C417.786 76.875 446.484 68.4286 481.857 68.4286ZM674.071 112.429C685.284 112.429 695.562 114.157 701.435 116.946L818.9 173.518C824.906 176.425 825.173 180.079 819.567 183.064C813.961 186.05 803.149 187.857 791.536 187.857H428.464C416.584 187.857 405.505 185.893 400.033 182.789C394.56 179.686 395.361 175.914 402.168 173.046L476.918 141.618C482.925 139.104 492.669 137.611 503.214 137.611C513.759 137.611 523.504 139.104 529.51 141.618L564.75 156.468L646.708 116.986C652.581 114.196 662.859 112.468 674.071 112.468V112.429Z" fill="#6C6C6C" fill-opacity="0.54"/>
</svg>
