<svg width="513" height="514" viewBox="0 0 513 514" fill="none" xmlns="http://www.w3.org/2000/svg">
<path d="M503.6 151.6L407.6 247.6C395.1 260.1 374.8 260.1 362.3 247.6C349.8 235.1 349.8 214.8 362.3 202.3L403.7 161H33C15.3 161 1 146.7 1 129C1 111.3 15.3 97 33 97H403.7L362.3 55.6C349.8 43.1 349.8 22.8 362.3 10.3C374.8 -2.19995 395.1 -2.19995 407.6 10.3L503.6 106.3C516.1 118.8 516.1 139.1 503.6 151.6ZM106.3 503.6L10.3 407.6C-2.2 395.1 -2.2 374.8 10.3 362.3L106.3 266.3C118.8 253.8 139.1 253.8 151.6 266.3C164.1 278.8 164.1 299.1 151.6 311.6L110.3 353H481C498.7 353 513 367.3 513 385C513 402.7 498.7 417 481 417H110.3L151.7 458.4C164.2 470.9 164.2 491.2 151.7 503.7C139.2 516.2 118.9 516.2 106.4 503.7L106.3 503.6Z" fill="white"/>
</svg>
