<svg width="500" height="400" viewBox="0 0 500 400" fill="none" xmlns="http://www.w3.org/2000/svg">
<path d="M71.4286 0C32.0312 0 0 25.625 0 57.1429V342.857C0 374.375 32.0312 400 71.4286 400H428.571C467.969 400 500 374.375 500 342.857V57.1429C500 25.625 467.969 0 428.571 0H71.4286ZM142.857 71.4286C172.433 71.4286 196.429 90.625 196.429 114.286C196.429 137.946 172.433 157.143 142.857 157.143C113.281 157.143 89.2857 137.946 89.2857 114.286C89.2857 90.625 113.281 71.4286 142.857 71.4286ZM303.571 171.429C312.946 171.429 321.54 175.357 326.451 181.696L424.665 310.268C429.687 316.875 429.911 325.179 425.223 331.964C420.536 338.75 411.496 342.857 401.786 342.857H98.2143C88.2813 342.857 79.0178 338.393 74.442 331.339C69.8661 324.286 70.5357 315.714 76.2277 309.196L138.728 237.768C143.75 232.054 151.897 228.661 160.714 228.661C169.531 228.661 177.679 232.054 182.701 237.768L212.165 271.518L280.692 181.786C285.603 175.446 294.196 171.518 303.571 171.518V171.429Z" fill="#6C6C6C" fill-opacity="0.54"/>
</svg>
